<svg width="96" height="96" viewBox="0 0 96 96" fill="none" xmlns="http://www.w3.org/2000/svg"><g id="Ic_time"><path id="Fill 3" d="M48.0135 93.5179C23.0402 93.5179 2.72266 73.3086 2.72266 48.4677C2.72266 23.6273 23.0402 3.41797 48.0135 3.41797C72.9868 3.41797 93.3043 23.6273 93.3043 48.4677C93.3043 73.3086 72.9868 93.5179 48.0135 93.5179" stroke="#003594" stroke-width="1.7"/><g id="Combined Shape"><path fill-rule="evenodd" clip-rule="evenodd" d="M47.5913 12.2232H47.6863L46.5915 21.1719L47.713 21.1637C47.649 21.4659 47.4285 21.6555 47.0456 21.7422L44.8195 22.1092L44.8118 22.2698C45.9704 22.5765 47.0352 22.9457 47.336 24.074L46.6178 41.4958C46.5783 42.7239 45.6687 43.2174 44.9379 43.6135C44.7024 43.741 44.4801 43.8617 44.3068 43.995L44.3894 44.1357C45.1071 43.8263 45.9609 43.8004 46.7739 43.8004L47.3573 43.8022C47.4761 43.8022 47.595 43.8018 47.713 43.7995L47.7411 45.1292L45.8579 45.8578L45.8892 46.0166L47.3677 45.9871V46.252C46.0943 46.7261 45.4514 47.6734 45.6451 48.7948C45.8198 49.8038 46.7512 50.8472 48.0078 50.8472C48.0423 50.8472 48.0764 50.8463 48.1108 50.845C48.4268 50.8304 48.736 50.7455 49.0204 50.6055L48.9212 50.788L49.0419 50.8937C49.1288 50.8301 49.2127 50.7567 49.2936 50.6858L49.2938 50.6856L49.2939 50.6856L49.2939 50.6855L49.294 50.6855L49.2941 50.6854L49.2941 50.6854L49.2944 50.6852L49.2945 50.685L49.3018 50.6786C49.5241 50.4831 49.7342 50.2989 49.9887 50.2989C50.1166 50.2989 50.2491 50.3452 50.3924 50.44L49.4651 52.0846L50.2886 52.5228L50.8125 51.5746C51.1505 51.8124 51.4835 52.0546 51.8161 52.2973L51.8161 52.2974C53.8889 53.8076 56.032 55.3691 59.4998 55.6672L62.7163 57.505C63.1673 57.8498 63.1187 58.4223 63.067 59.0289L63.0666 59.0335V59.0336V59.0336V59.0336V59.0337V59.0337V59.0337V59.0338V59.0338V59.0338V59.0339V59.0339V59.034V59.034C63.0463 59.2733 63.0254 59.5205 63.0384 59.7515L63.0539 60.0287L64.0537 58.2798L64.2348 58.3638L63.8927 59.023L65.123 60.1617L65.2043 60.0546C65.3313 59.8854 65.4415 59.7388 65.6901 59.7388C65.7981 59.7388 65.9292 59.767 66.078 59.8219L70.9627 61.7622L71.0434 61.6207L66.8905 58.3887C66.5693 58.1941 66.4936 57.9047 66.6528 57.4769L66.6837 57.3934L65.0636 56.9379L64.7011 57.5649L64.5247 57.4642L65.5291 55.698L65.295 55.8074C65.07 55.9131 64.8645 56.0709 64.6653 56.2243L64.665 56.2245C64.3176 56.4912 63.9892 56.7433 63.5665 56.7433C63.4304 56.7433 63.2934 56.7179 63.1605 56.6707L59.9621 54.8429C57.7922 51.787 54.7291 50.4482 52.0102 49.4438L52.5501 48.4842L51.7684 48.026L50.8375 49.6393C50.3586 49.3661 50.4263 48.9471 50.5042 48.4652L50.5045 48.4634C50.5168 48.3912 50.5285 48.3187 50.5381 48.247L50.4059 48.2023C50.3073 47.4956 49.8182 46.858 48.9909 46.3854L48.9982 46.0465L50.4504 46.017L50.4785 45.8582L48.6253 45.1437V43.7977C48.7139 43.7964 48.8021 43.7946 48.8911 43.7929L48.8915 43.7929L48.892 43.7929L48.9002 43.7927C49.0912 43.7891 49.2822 43.7859 49.4714 43.7859C50.1696 43.7859 50.8973 43.8313 51.4866 44.1629L51.5828 44.0313C51.425 43.8835 51.2554 43.7421 51.0913 43.6052L51.0912 43.605L51.091 43.6049C50.4173 43.0428 49.7812 42.5115 49.7499 41.4949L48.985 24.0427C49.2246 23.1799 49.9608 22.8401 50.7401 22.4804L50.7403 22.4803L50.7554 22.4733L50.7554 22.4733L50.7555 22.4733L50.7556 22.4732L50.7556 22.4732L50.7557 22.4732L50.7558 22.4731L50.7558 22.4731L50.7559 22.4731L50.756 22.473L50.756 22.473L50.7561 22.473L50.7562 22.4729L50.7562 22.4729L50.7563 22.4729C50.9043 22.4046 51.0526 22.3361 51.1967 22.2639L51.4244 22.1496L48.9392 21.7517C48.5522 21.6487 48.3377 21.4641 48.2728 21.1746L49.3952 21.1964L48.3177 12.2232H48.5771V9.52344H47.5913V12.2232ZM47.5904 87.6554H48.5763V84.7497H47.5904V87.6554ZM8.875 48.9812H11.8384V47.9954H8.875V48.9812ZM84.3796 48.982H87.2985V47.9962H84.3796V48.982ZM57.7108 13.5117L57.2345 13.3842L57.9322 10.7806L58.4086 10.9085L57.7108 13.5117ZM38.1871 86.3791L37.7112 86.2516L38.462 83.4489L38.9383 83.5763L38.1871 86.3791ZM10.1466 38.5726L13.0764 39.3575L13.2043 38.8811L10.2741 38.0963L10.1466 38.5726ZM83.0756 58.1141L85.8952 58.8695L86.0227 58.3932L83.2036 57.6378L83.0756 58.1141ZM66.6506 17.3088L65.7968 16.8156L67.1419 14.4856L67.9957 14.9787L66.6506 17.3088ZM28.9282 82.6443L28.0744 82.1512L29.5244 79.6397L30.3782 80.1323L28.9282 82.6443ZM13.8808 29.2995L16.4417 30.778L16.9349 29.9242L14.3739 28.4457L13.8808 29.2995ZM79.2691 67.0509L81.7956 68.5094L82.2887 67.6556L79.7622 66.1971L79.2691 67.0509ZM73.9095 22.9988L73.5606 22.6499L75.4646 20.7463L75.8135 21.0952L73.9095 22.9988ZM20.5646 76.3435L20.2157 75.9947L22.2654 73.9454L22.6138 74.2939L20.5646 76.3435ZM20.1886 20.9208L22.2873 23.0195L22.6362 22.6706L20.5371 20.5719L20.1886 20.9208ZM73.5741 74.3065L75.6401 76.3721L75.9885 76.0237L73.9229 73.9577L73.5741 74.3065ZM79.7553 30.7552L79.2622 29.9014L81.5904 28.5572L82.0836 29.411L79.7553 30.7552ZM14.4194 68.4774L13.9263 67.624L16.4328 66.1768L16.9259 67.0306L14.4194 68.4774ZM28.0596 14.7586L29.5436 17.3291L30.3974 16.8359L28.913 14.2654L28.0596 14.7586ZM65.8085 80.1439L67.2684 82.6726L68.1222 82.1795L66.6623 79.6507L65.8085 80.1439ZM83.1995 39.3139L83.0721 38.8376L85.6716 38.1412L85.7991 38.6175L83.1995 39.3139ZM10.329 58.8399L10.2011 58.3635L13.0025 57.6131L13.13 58.0895L10.329 58.8399ZM37.7102 10.655L38.4778 13.519L38.9542 13.3915L38.1866 10.5271L37.7102 10.655ZM57.2511 83.5794L58.0074 86.4017L58.4838 86.2742L57.7275 83.4515L57.2511 83.5794Z" fill="#003594"/><path d="M47.6863 12.2232L48.1826 12.2839L48.2512 11.7232H47.6863V12.2232ZM47.5913 12.2232H47.0913V12.7232H47.5913V12.2232ZM46.5915 21.1719L46.0952 21.1112L46.0261 21.676L46.5951 21.6719L46.5915 21.1719ZM47.713 21.1637L48.2021 21.2673L48.3309 20.6592L47.7093 20.6637L47.713 21.1637ZM47.0456 21.7422L47.127 22.2355L47.1415 22.2331L47.156 22.2298L47.0456 21.7422ZM44.8195 22.1092L44.7381 21.6158L44.3394 21.6816L44.32 22.0852L44.8195 22.1092ZM44.8118 22.2698L44.3123 22.2458L44.2929 22.6497L44.6838 22.7531L44.8118 22.2698ZM47.336 24.074L47.8355 24.0946L47.8387 24.0187L47.8191 23.9452L47.336 24.074ZM46.6178 41.4958L46.1182 41.4752L46.1181 41.4797L46.6178 41.4958ZM44.9379 43.6135L45.1759 44.0532L45.1761 44.0531L44.9379 43.6135ZM44.3068 43.995L44.0019 43.5988L43.6523 43.8678L43.8756 44.2482L44.3068 43.995ZM44.3894 44.1357L43.9582 44.3888L44.1818 44.7696L44.5873 44.5948L44.3894 44.1357ZM46.7739 43.8004L46.7754 43.3004H46.7739V43.8004ZM47.3573 43.8022L47.3557 44.3022H47.3573V43.8022ZM47.713 43.7995L48.2129 43.7889L48.2023 43.29L47.7033 43.2996L47.713 43.7995ZM47.7411 45.1292L47.9215 45.5955L48.2484 45.4691L48.241 45.1186L47.7411 45.1292ZM45.8579 45.8578L45.6775 45.3915L45.2862 45.5429L45.3674 45.9545L45.8579 45.8578ZM45.8892 46.0166L45.3987 46.1133L45.4798 46.5248L45.8992 46.5165L45.8892 46.0166ZM47.3677 45.9871H47.8677V45.477L47.3577 45.4872L47.3677 45.9871ZM47.3677 46.252L47.5422 46.7206L47.8677 46.5994V46.252H47.3677ZM45.6451 48.7948L45.1524 48.8799L45.1525 48.8801L45.6451 48.7948ZM48.1108 50.845L48.1306 51.3446L48.1338 51.3444L48.1108 50.845ZM49.0204 50.6055L49.4597 50.8443L50.211 49.4621L48.7995 50.157L49.0204 50.6055ZM48.9212 50.788L48.4819 50.5492L48.2909 50.9006L48.5917 51.1641L48.9212 50.788ZM49.0419 50.8937L48.7124 51.2698L49.0139 51.5339L49.3373 51.2971L49.0419 50.8937ZM49.2945 50.685L49.6238 51.0613L49.6238 51.0613L49.2945 50.685ZM49.3018 50.6786L49.6311 51.0549L49.6321 51.0541L49.3018 50.6786ZM50.3924 50.44L50.828 50.6856L51.0567 50.2799L50.6683 50.023L50.3924 50.44ZM49.4651 52.0846L49.0296 51.839L48.778 52.2852L49.2302 52.5259L49.4651 52.0846ZM50.2886 52.5228L50.0536 52.9642L50.4881 53.1954L50.7262 52.7646L50.2886 52.5228ZM50.8125 51.5746L51.1002 51.1657L50.6444 50.8451L50.3749 51.3328L50.8125 51.5746ZM51.8161 52.2973L51.5213 52.7012L51.522 52.7017L51.8161 52.2973ZM51.8161 52.2974L52.1106 51.8933L52.1102 51.893L51.8161 52.2974ZM59.4998 55.6672L59.7479 55.233L59.6523 55.1784L59.5426 55.169L59.4998 55.6672ZM62.7163 57.505L63.02 57.1078L62.9934 57.0875L62.9644 57.0709L62.7163 57.505ZM63.067 59.0289L62.5688 58.9864L62.5688 58.9866L63.067 59.0289ZM63.0666 59.0335L62.5684 58.9913L63.0666 59.0335ZM63.0384 59.7515L63.5377 59.7238L63.5376 59.7233L63.0384 59.7515ZM63.0539 60.0287L62.5546 60.0565L62.6486 61.745L63.4879 60.2769L63.0539 60.0287ZM64.0537 58.2799L64.2641 57.8262L63.8476 57.6331L63.6197 58.0317L64.0537 58.2799ZM64.2348 58.3638L64.6786 58.5941L64.9194 58.1301L64.4451 57.9102L64.2348 58.3638ZM63.8927 59.023L63.4489 58.7927L63.2733 59.131L63.5531 59.3899L63.8927 59.023ZM65.123 60.1617L64.7834 60.5286L65.1882 60.9032L65.5214 60.4638L65.123 60.1617ZM65.2043 60.0546L65.6026 60.3568L65.6041 60.3548L65.2043 60.0546ZM66.078 59.8219L66.2627 59.357L66.2511 59.3528L66.078 59.8219ZM70.9627 61.7622L70.7781 62.2269L71.1817 62.3872L71.3969 62.01L70.9627 61.7622ZM71.0434 61.6207L71.4777 61.8684L71.6924 61.4921L71.3505 61.2261L71.0434 61.6207ZM66.8905 58.3887L67.1976 57.9941L67.1746 57.9762L67.1497 57.9611L66.8905 58.3887ZM66.6528 57.4769L67.1214 57.6513L67.1218 57.6502L66.6528 57.4769ZM66.6837 57.3934L67.1527 57.5667L67.3404 57.0586L66.819 56.912L66.6837 57.3934ZM65.0636 56.9379L65.1989 56.4566L64.8251 56.3515L64.6308 56.6876L65.0636 56.9379ZM64.7011 57.5649L64.4533 57.9991L64.8851 58.2456L65.134 57.8151L64.7011 57.5649ZM64.5247 57.4642L64.09 57.217L63.8432 57.651L64.2768 57.8984L64.5247 57.4642ZM65.5291 55.698L65.9637 55.9452L66.7397 54.5808L65.3175 55.245L65.5291 55.698ZM65.295 55.8074L65.0834 55.3543L65.0824 55.3548L65.295 55.8074ZM64.6653 56.2243L64.3603 55.8281L64.3583 55.8296L64.6653 56.2243ZM64.665 56.2245L64.9423 56.6406L64.9575 56.6304L64.9719 56.6192L64.665 56.2245ZM64.6649 56.2246L64.3876 55.8085L64.3737 55.8178L64.3605 55.8279L64.6649 56.2246ZM63.1605 56.6707L62.9124 57.1048L62.9512 57.127L62.9932 57.1419L63.1605 56.6707ZM59.9621 54.8429L59.5544 55.1323L59.6183 55.2223L59.714 55.277L59.9621 54.8429ZM52.0102 49.4438L51.5745 49.1986L51.2869 49.7096L51.837 49.9128L52.0102 49.4438ZM52.5501 48.4842L52.9859 48.7294L53.2267 48.3013L52.8029 48.0529L52.5501 48.4842ZM51.7684 48.026L52.0213 47.5947L51.587 47.3401L51.3354 47.7761L51.7684 48.026ZM50.8375 49.6393L50.5897 50.0736L51.0219 50.3201L51.2706 49.8892L50.8375 49.6393ZM50.5042 48.4652L50.0106 48.3853L50.0106 48.3854L50.5042 48.4652ZM50.5045 48.4634L50.0115 48.3797L50.0109 48.3835L50.5045 48.4634ZM50.5381 48.247L51.0337 48.3128L51.0879 47.9051L50.6983 47.7733L50.5381 48.247ZM50.4059 48.2023L49.9107 48.2713L49.9533 48.577L50.2457 48.6759L50.4059 48.2023ZM48.9909 46.3854L48.4911 46.3747L48.4847 46.672L48.7429 46.8196L48.9909 46.3854ZM48.9982 46.0465L48.9881 45.5466L48.5086 45.5564L48.4983 46.0358L48.9982 46.0465ZM50.4504 46.017L50.4605 46.5169L50.8711 46.5086L50.9427 46.1042L50.4504 46.017ZM50.4785 45.8582L50.9709 45.9455L51.0427 45.5399L50.6584 45.3917L50.4785 45.8582ZM48.6253 45.1437H48.1253V45.4868L48.4454 45.6102L48.6253 45.1437ZM48.6253 43.7977L48.6179 43.2977L48.1253 43.3051V43.7977H48.6253ZM48.8904 43.7929L48.9003 44.2929L48.9096 44.2925L48.8904 43.7929ZM48.8907 43.7929V43.2925L48.8715 43.2933L48.8907 43.7929ZM48.891 43.7929V44.2931L48.9041 44.2927L48.891 43.7929ZM48.8914 43.7929L48.8814 43.293L48.8783 43.293L48.8914 43.7929ZM48.892 43.7929L48.8822 43.293L48.882 43.293L48.892 43.7929ZM48.9002 43.7927L48.8907 43.2928L48.8905 43.2928L48.9002 43.7927ZM51.4866 44.1629L51.2414 44.5986L51.6282 44.8163L51.8902 44.458L51.4866 44.1629ZM51.5828 44.0313L51.9864 44.3264L52.2476 43.9691L51.9246 43.6664L51.5828 44.0313ZM51.0916 43.6054L50.7662 43.9851L50.7713 43.9893L51.0916 43.6054ZM51.0915 43.6053L51.417 43.2256L51.4103 43.2201L51.0915 43.6053ZM51.0912 43.605L50.7711 43.9892L50.7724 43.9902L51.0912 43.605ZM51.091 43.6049L50.7707 43.9888L50.7709 43.989L51.091 43.6049ZM49.7499 41.4949L50.2497 41.4795L50.2495 41.473L49.7499 41.4949ZM48.985 24.0427L48.5033 23.909L48.4821 23.9854L48.4855 24.0646L48.985 24.0427ZM50.7401 22.4804L50.5309 22.0262L50.5305 22.0264L50.7401 22.4804ZM50.7403 22.4803L50.9494 22.9344L50.9499 22.9342L50.7403 22.4803ZM50.7554 22.4733L50.547 22.0188L50.5458 22.0194L50.7554 22.4733ZM50.7563 22.4729L50.9646 22.9274L50.9658 22.9269L50.7563 22.4729ZM51.1967 22.2639L51.4209 22.7108L51.421 22.7107L51.1967 22.2639ZM51.4244 22.1496L51.6487 22.5964L53.0342 21.9009L51.5035 21.6558L51.4244 22.1496ZM48.9392 21.7517L48.8106 22.2349L48.8351 22.2414L48.8602 22.2454L48.9392 21.7517ZM48.2728 21.1746L48.2825 20.6747L47.6456 20.6624L47.7849 21.284L48.2728 21.1746ZM49.3952 21.1964L49.3855 21.6963L49.9601 21.7075L49.8916 21.1368L49.3952 21.1964ZM48.3177 12.2232V11.7232H47.7541L47.8213 12.2828L48.3177 12.2232ZM48.5771 12.2232V12.7232H49.0771V12.2232H48.5771ZM48.5771 9.52344H49.0771V9.02344H48.5771V9.52344ZM47.5913 9.52344V9.02344H47.0913V9.52344H47.5913ZM48.5763 87.6554V88.1554H49.0763V87.6554H48.5763ZM47.5904 87.6554H47.0904V88.1554H47.5904V87.6554ZM48.5763 84.7497H49.0763V84.2497H48.5763V84.7497ZM47.5904 84.7497V84.2497H47.0904V84.7497H47.5904ZM11.8384 48.9812V49.4812H12.3384V48.9812H11.8384ZM8.875 48.9812H8.375V49.4812H8.875V48.9812ZM11.8384 47.9954H12.3384V47.4954H11.8384V47.9954ZM8.875 47.9954V47.4954H8.375V47.9954H8.875ZM87.2985 48.982V49.482H87.7985V48.982H87.2985ZM84.3796 48.982H83.8796V49.482H84.3796V48.982ZM87.2985 47.9962H87.7985V47.4962H87.2985V47.9962ZM84.3796 47.9962V47.4962H83.8796V47.9962H84.3796ZM57.2345 13.3842L56.7515 13.2547L56.6221 13.7379L57.1052 13.8672L57.2345 13.3842ZM57.7108 13.5117L57.5816 13.9947L58.0644 14.1239L58.1938 13.6411L57.7108 13.5117ZM57.9322 10.7806L58.0619 10.2977L57.5788 10.1679L57.4493 10.6511L57.9322 10.7806ZM58.4086 10.9085L58.8915 11.038L59.0209 10.5552L58.5383 10.4256L58.4086 10.9085ZM37.7112 86.2516L37.2282 86.1222L37.0988 86.6052L37.5818 86.7346L37.7112 86.2516ZM38.1871 86.3791L38.0577 86.8621L38.5406 86.9914L38.67 86.5085L38.1871 86.3791ZM38.462 83.4488L38.5912 82.9658L38.1084 82.8366L37.979 83.3195L38.462 83.4488ZM38.9383 83.5763L39.4213 83.7058L39.5508 83.2226L39.0676 83.0933L38.9383 83.5763ZM13.0764 39.3575L12.947 39.8405L13.4296 39.9697L13.5592 39.4872L13.0764 39.3575ZM10.1466 38.5726L9.66357 38.4434L9.53434 38.9263L10.0172 39.0556L10.1466 38.5726ZM13.2043 38.8811L13.6872 39.0108L13.817 38.5276L13.3337 38.3981L13.2043 38.8811ZM10.2741 38.0963L10.4034 37.6133L9.92034 37.4839L9.79105 37.967L10.2741 38.0963ZM85.8952 58.8695L85.7658 59.3525L86.2489 59.4819L86.3782 58.9988L85.8952 58.8695ZM83.0756 58.1141L82.5928 57.9845L82.463 58.4676L82.9463 58.5971L83.0756 58.1141ZM86.0227 58.3932L86.5057 58.5224L86.6349 58.0396L86.1521 57.9102L86.0227 58.3932ZM83.2036 57.6378L83.333 57.1548L82.8503 57.0255L82.7207 57.5081L83.2036 57.6378ZM65.7967 16.8156L65.3637 16.5656L65.1138 16.9986L65.5467 17.2486L65.7967 16.8156ZM66.6506 17.3088L66.4005 17.7417L66.8335 17.9919L67.0836 17.5587L66.6506 17.3088ZM67.1419 14.4856L67.392 14.0526L66.9589 13.8025L66.7089 14.2356L67.1419 14.4856ZM67.9957 14.9787L68.4287 15.2287L68.6786 14.7958L68.2458 14.5457L67.9957 14.9787ZM28.0744 82.1512L27.6414 81.9012L27.3915 82.3341L27.8244 82.5841L28.0744 82.1512ZM28.9282 82.6443L28.6782 83.0773L29.1113 83.3274L29.3613 82.8942L28.9282 82.6443ZM29.5244 79.6397L29.7743 79.2066L29.3413 78.9567L29.0913 79.3897L29.5244 79.6397ZM30.3782 80.1323L30.8112 80.3823L31.0612 79.9492L30.6281 79.6993L30.3782 80.1323ZM16.4417 30.778L16.1917 31.211L16.6247 31.4609L16.8747 31.0281L16.4417 30.778ZM13.8808 29.2995L13.4478 29.0494L13.1977 29.4825L13.6308 29.7325L13.8808 29.2995ZM16.9349 29.9242L17.3678 30.1743L17.6179 29.7412L17.1848 29.4912L16.9349 29.9242ZM14.3739 28.4457L14.6239 28.0127L14.191 27.7627L13.9409 28.1956L14.3739 28.4457ZM81.7956 68.5094L81.5456 68.9424L81.9785 69.1924L82.2285 68.7595L81.7956 68.5094ZM79.2691 67.0509L78.8361 66.8008L78.586 67.2339L79.0191 67.4839L79.2691 67.0509ZM82.2887 67.6556L82.7217 67.9057L82.9718 67.4726L82.5387 67.2226L82.2887 67.6556ZM79.7622 66.1971L80.0122 65.7641L79.5793 65.5141L79.3292 65.947L79.7622 66.1971ZM73.5606 22.6499L73.2071 22.2963L72.8535 22.6499L73.2071 23.0035L73.5606 22.6499ZM73.9095 22.9988L73.5559 23.3524L73.9094 23.7059L74.263 23.3524L73.9095 22.9988ZM75.4646 20.7463L75.8182 20.3928L75.4647 20.0393L75.1111 20.3928L75.4646 20.7463ZM75.8135 21.0952L76.167 21.4488L76.5207 21.0953L76.1671 20.7417L75.8135 21.0952ZM20.2157 75.9947L19.8622 75.6411L19.5086 75.9946L19.8622 76.3482L20.2157 75.9947ZM20.5646 76.3435L20.2111 76.6971L20.5647 77.0507L20.9182 76.6971L20.5646 76.3435ZM22.2654 73.9454L22.619 73.5919L22.2655 73.2384L21.9119 73.5919L22.2654 73.9454ZM22.6138 74.2939L22.9674 74.6474L23.3209 74.2938L22.9674 73.9403L22.6138 74.2939ZM22.2873 23.0195L21.9338 23.373L22.2873 23.7266L22.6409 23.373L22.2873 23.0195ZM20.1886 20.9208L19.8349 20.5675L19.4818 20.921L19.8351 21.2744L20.1886 20.9208ZM22.6362 22.6706L22.9897 23.0242L23.3433 22.6706L22.9897 22.317L22.6362 22.6706ZM20.5371 20.5719L20.8906 20.2183L20.5368 19.8646L20.1833 20.2186L20.5371 20.5719ZM75.6401 76.3721L75.2866 76.7257L75.6401 77.0792L75.9936 76.7257L75.6401 76.3721ZM73.5741 74.3065L73.2205 73.953L72.8669 74.3066L73.2206 74.6601L73.5741 74.3065ZM75.9885 76.0237L76.342 76.3772L76.6955 76.0237L76.3421 75.6702L75.9885 76.0237ZM73.9229 73.9577L74.2765 73.6042L73.923 73.2505L73.5694 73.6041L73.9229 73.9577ZM79.2622 29.9014L79.0122 29.4684L78.5791 29.7185L78.8292 30.1515L79.2622 29.9014ZM79.7553 30.7552L79.3224 31.0053L79.5724 31.4382L80.0053 31.1882L79.7553 30.7552ZM81.5904 28.5572L82.0234 28.3071L81.7734 27.8742L81.3404 28.1242L81.5904 28.5572ZM82.0836 29.411L82.3336 29.844L82.7667 29.594L82.5165 29.1609L82.0836 29.411ZM13.9263 67.624L13.6763 67.191L13.2431 67.4411L13.4934 67.8742L13.9263 67.624ZM14.4194 68.4774L13.9865 68.7275L14.2365 69.1602L14.6694 68.9104L14.4194 68.4774ZM16.4328 66.1768L16.8658 65.9267L16.6157 65.4938L16.1828 65.7438L16.4328 66.1768ZM16.9259 67.0306L17.1759 67.4636L17.609 67.2136L17.3589 66.7805L16.9259 67.0306ZM29.5436 17.3291L29.1105 17.5791L29.3606 18.0122L29.7936 17.762L29.5436 17.3291ZM28.0596 14.7586L27.8094 14.3257L27.3767 14.5757L27.6266 15.0086L28.0596 14.7586ZM30.3974 16.8359L30.6474 17.2689L31.0804 17.0188L30.8303 16.5859L30.3974 16.8359ZM28.913 14.2654L29.3459 14.0154L29.0958 13.5823L28.6628 13.8325L28.913 14.2654ZM67.2684 82.6726L66.8354 82.9226L67.0854 83.3557L67.5185 83.1056L67.2684 82.6726ZM65.8085 80.1439L65.5584 79.7109L65.1255 79.9609L65.3755 80.3939L65.8085 80.1439ZM68.1222 82.1795L68.3723 82.6125L68.8051 82.3624L68.5552 81.9295L68.1222 82.1795ZM66.6623 79.6507L67.0953 79.4008L66.8453 78.9677L66.4122 79.2178L66.6623 79.6507ZM83.0721 38.8376L82.9427 38.3546L82.4598 38.4839L82.5891 38.9668L83.0721 38.8376ZM83.1995 39.3139L82.7165 39.4432L82.8458 39.9263L83.3289 39.7969L83.1995 39.3139ZM85.6716 38.1412L86.1546 38.0119L86.0253 37.5288L85.5422 37.6582L85.6716 38.1412ZM85.7991 38.6175L85.9284 39.1005L86.4113 38.9711L86.2821 38.4883L85.7991 38.6175ZM10.2011 58.3635L10.0717 57.8805L9.58844 58.01L9.71822 58.4932L10.2011 58.3635ZM10.329 58.8398L9.84615 58.9695L9.97576 59.4521L10.4584 59.3228L10.329 58.8398ZM13.0025 57.6131L13.4855 57.4839L13.3562 57.0008L12.8731 57.1302L13.0025 57.6131ZM13.13 58.0895L13.2594 58.5724L13.7422 58.4431L13.613 57.9602L13.13 58.0895ZM38.4778 13.519L37.9949 13.6485L38.1243 14.1312L38.6071 14.002L38.4778 13.519ZM37.7102 10.655L37.5805 10.1721L37.0979 10.3018L37.2273 10.7845L37.7102 10.655ZM38.9542 13.3915L39.0834 13.8746L39.5666 13.7452L39.4371 13.2621L38.9542 13.3915ZM38.1866 10.5271L38.6695 10.3977L38.54 9.91444L38.0569 10.0442L38.1866 10.5271ZM58.0074 86.4017L57.5244 86.5311L57.6538 87.0139L58.1367 86.8847L58.0074 86.4017ZM57.2511 83.5794L57.1214 83.0965L56.6388 83.2262L56.7682 83.7088L57.2511 83.5794ZM58.4838 86.2742L58.613 86.7572L59.0962 86.6279L58.9667 86.1448L58.4838 86.2742ZM57.7275 83.4515L58.2105 83.3221L58.081 82.8388L57.5978 82.9686L57.7275 83.4515ZM47.6863 11.7232H47.5913V12.7232H47.6863V11.7232ZM47.0878 21.2326L48.1826 12.2839L47.19 12.1625L46.0952 21.1112L47.0878 21.2326ZM47.7093 20.6637L46.5879 20.6719L46.5951 21.6719L47.7166 21.6637L47.7093 20.6637ZM47.156 22.2298C47.4007 22.1744 47.6349 22.0772 47.826 21.9119C48.0241 21.7406 48.1488 21.5191 48.2021 21.2673L47.2238 21.0602C47.2131 21.1105 47.1957 21.1349 47.1718 21.1556C47.1409 21.1823 47.0734 21.2232 46.9353 21.2545L47.156 22.2298ZM44.9008 22.6025L47.127 22.2355L46.9643 21.2488L44.7381 21.6158L44.9008 22.6025ZM45.3112 22.2938L45.3189 22.1332L44.32 22.0852L44.3123 22.2458L45.3112 22.2938ZM47.8191 23.9452C47.4347 22.5034 46.0579 22.0824 44.9397 21.7864L44.6838 22.7531C45.8829 23.0705 46.6357 23.3881 46.8528 24.2028L47.8191 23.9452ZM47.1174 41.5164L47.8355 24.0946L46.8364 24.0534L46.1182 41.4752L47.1174 41.5164ZM45.1761 44.0531C45.8799 43.6717 47.0679 43.0566 47.1176 41.5118L46.1181 41.4797C46.0888 42.3911 45.4575 42.7632 44.6997 43.1739L45.1761 44.0531ZM44.6118 44.3913C44.747 44.2872 44.9308 44.1859 45.1759 44.0532L44.6998 43.1738C44.4741 43.296 44.2132 43.4361 44.0019 43.5988L44.6118 44.3913ZM44.8206 43.8825L44.738 43.7419L43.8756 44.2482L43.9582 44.3888L44.8206 43.8825ZM46.7739 43.3004C45.9698 43.3004 45.0164 43.3209 44.1915 43.6765L44.5873 44.5948C45.1978 44.3317 45.952 44.3004 46.7739 44.3004V43.3004ZM47.3588 43.3022L46.7754 43.3004L46.7723 44.3004L47.3557 44.3022L47.3588 43.3022ZM47.7033 43.2996C47.5903 43.3018 47.4752 43.3022 47.3573 43.3022V44.3022C47.4771 44.3022 47.5998 44.3018 47.7226 44.2994L47.7033 43.2996ZM48.241 45.1186L48.2129 43.7889L47.2131 43.8101L47.2412 45.1398L48.241 45.1186ZM46.0383 46.3241L47.9215 45.5955L47.5607 44.6629L45.6775 45.3915L46.0383 46.3241ZM46.3798 45.9199L46.3485 45.7611L45.3674 45.9545L45.3987 46.1133L46.3798 45.9199ZM47.3577 45.4872L45.8792 45.5167L45.8992 46.5165L47.3777 46.487L47.3577 45.4872ZM47.8677 46.252V45.9871H46.8677V46.252H47.8677ZM46.1379 48.7097C46.0622 48.2716 46.1498 47.8863 46.3701 47.5612C46.5949 47.2296 46.9795 46.9301 47.5422 46.7206L47.1933 45.7835C46.4825 46.0481 45.9089 46.4593 45.5424 47.0001C45.1714 47.5475 45.0344 48.1966 45.1524 48.8799L46.1379 48.7097ZM48.0078 50.3472C47.0405 50.3472 46.2794 49.5273 46.1378 48.7096L45.1525 48.8801C45.3602 50.0803 46.4619 51.3472 48.0078 51.3472V50.3472ZM48.0911 50.3454C48.0607 50.3466 48.0337 50.3472 48.0078 50.3472V51.3472C48.051 51.3472 48.092 51.3461 48.1306 51.3446L48.0911 50.3454ZM48.7995 50.157C48.5717 50.2691 48.3295 50.3344 48.0878 50.3455L48.1338 51.3444C48.5241 51.3265 48.9003 51.2219 49.2412 51.0541L48.7995 50.157ZM49.3605 51.0268L49.4597 50.8443L48.5811 50.3668L48.4819 50.5492L49.3605 51.0268ZM49.3713 50.5176L49.2507 50.4119L48.5917 51.1641L48.7124 51.2698L49.3713 50.5176ZM48.9652 50.3088C48.881 50.3825 48.8131 50.4415 48.7465 50.4903L49.3373 51.2971C49.445 51.2182 49.5456 51.1297 49.6238 51.0613L48.9652 50.3088ZM48.9725 50.3024L48.9652 50.3088L49.6238 51.0613L49.6311 51.0549L48.9725 50.3024ZM49.9887 49.7989C49.7348 49.7989 49.5261 49.8922 49.367 49.9922C49.2147 50.088 49.0759 50.2115 48.9716 50.3032L49.6321 51.0541C49.7501 50.9502 49.8275 50.8839 49.8993 50.8387C49.9645 50.7977 49.988 50.7989 49.9887 50.7989V49.7989ZM50.6683 50.023C50.4705 49.8922 50.2431 49.7989 49.9887 49.7989V50.7989C49.9902 50.7989 50.0277 50.7982 50.1166 50.8571L50.6683 50.023ZM49.9007 52.3301L50.828 50.6856L49.9569 50.1944L49.0296 51.839L49.9007 52.3301ZM50.5235 52.0814L49.7001 51.6432L49.2302 52.5259L50.0536 52.9642L50.5235 52.0814ZM50.3749 51.3328L49.8509 52.281L50.7262 52.7646L51.2502 51.8165L50.3749 51.3328ZM52.1108 51.8935C51.7783 51.6507 51.4421 51.4062 51.1002 51.1657L50.5249 51.9836C50.8589 52.2186 51.1888 52.4585 51.5213 52.7012L52.1108 51.8935ZM52.1102 51.893L52.1101 51.893L51.522 52.7017L51.5221 52.7018L52.1102 51.893ZM59.5426 55.169C56.2254 54.8839 54.1812 53.4019 52.1106 51.8933L51.5217 52.7015C53.5967 54.2134 55.8387 55.8543 59.457 56.1653L59.5426 55.169ZM62.9644 57.0709L59.7479 55.233L59.2518 56.1013L62.4683 57.9391L62.9644 57.0709ZM63.5652 59.0713C63.5898 58.7829 63.6226 58.4272 63.5751 58.0974C63.5242 57.7446 63.3768 57.3805 63.02 57.1078L62.4126 57.9022C62.5069 57.9742 62.5606 58.0689 62.5853 58.2401C62.6133 58.4344 62.596 58.6683 62.5688 58.9864L63.5652 59.0713ZM63.5648 59.0758L63.5652 59.0711L62.5688 58.9866L62.5684 58.9913L63.5648 59.0758ZM63.5376 59.7233C63.5269 59.5337 63.5439 59.3227 63.5648 59.0758L62.5684 58.9913C62.5488 59.2233 62.5238 59.5069 62.5392 59.7798L63.5376 59.7233ZM63.5531 60.001L63.5377 59.7238L62.5392 59.7793L62.5546 60.0565L63.5531 60.001ZM63.6197 58.0317L62.6198 59.7806L63.4879 60.2769L64.4878 58.528L63.6197 58.0317ZM64.4451 57.9102L64.2641 57.8262L63.8434 58.7335L64.0244 58.8174L64.4451 57.9102ZM64.3365 59.2533L64.6786 58.5941L63.791 58.1335L63.4489 58.7927L64.3365 59.2533ZM65.4627 59.7947L64.2323 58.656L63.5531 59.3899L64.7834 60.5286L65.4627 59.7947ZM64.8059 59.7524L64.7247 59.8595L65.5214 60.4638L65.6026 60.3568L64.8059 59.7524ZM65.6901 59.2388C65.4523 59.2388 65.2553 59.314 65.0952 59.4381C64.9579 59.5447 64.8589 59.6818 64.8044 59.7544L65.6041 60.3548C65.6377 60.31 65.6589 60.2821 65.6789 60.2588C65.6976 60.2369 65.7065 60.2295 65.708 60.2284C65.7084 60.2281 65.7067 60.2294 65.7033 60.2313C65.6997 60.2333 65.6954 60.2353 65.6909 60.2368C65.6806 60.2404 65.6783 60.2388 65.6901 60.2388V59.2388ZM66.2511 59.3528C66.0707 59.2862 65.8781 59.2388 65.6901 59.2388V60.2388C65.7181 60.2388 65.7877 60.2477 65.905 60.291L66.2511 59.3528ZM71.1472 61.2975L66.2626 59.3572L65.8934 60.2865L70.7781 62.2269L71.1472 61.2975ZM70.6091 61.3729L70.5284 61.5144L71.3969 62.01L71.4777 61.8684L70.6091 61.3729ZM66.5835 58.7833L70.7363 62.0152L71.3505 61.2261L67.1976 57.9941L66.5835 58.7833ZM66.1842 57.3024C66.0856 57.5675 66.0326 57.8588 66.1077 58.1465C66.187 58.4504 66.387 58.6682 66.6314 58.8163L67.1497 57.9611C67.1085 57.9362 67.0903 57.9173 67.0833 57.9087C67.0777 57.9018 67.0764 57.8983 67.0753 57.894C67.072 57.8814 67.0608 57.814 67.1214 57.6513L66.1842 57.3024ZM66.2147 57.2201L66.1838 57.3035L67.1218 57.6502L67.1527 57.5667L66.2147 57.2201ZM64.9283 57.4192L66.5483 57.8747L66.819 56.912L65.1989 56.4566L64.9283 57.4192ZM65.134 57.8151L65.4965 57.1882L64.6308 56.6876L64.2683 57.3146L65.134 57.8151ZM64.2768 57.8984L64.4533 57.9991L64.949 57.1306L64.7725 57.0299L64.2768 57.8984ZM65.0944 55.4508L64.09 57.217L64.9593 57.7113L65.9637 55.9452L65.0944 55.4508ZM65.5066 56.2604L65.7407 56.1511L65.3175 55.245L65.0834 55.3543L65.5066 56.2604ZM64.9703 56.6205C65.1775 56.461 65.3403 56.3385 65.5076 56.2599L65.0824 55.3548C64.7996 55.4876 64.5514 55.6809 64.3603 55.8281L64.9703 56.6205ZM64.9719 56.6192L64.9723 56.619L64.3583 55.8296L64.358 55.8299L64.9719 56.6192ZM64.9423 56.6406L64.9423 56.6406L64.3876 55.8085L64.3876 55.8085L64.9423 56.6406ZM63.5665 57.2433C64.1878 57.2433 64.6512 56.8654 64.9694 56.6212L64.3605 55.8279C63.9839 56.117 63.7906 56.2433 63.5665 56.2433V57.2433ZM62.9932 57.1419C63.1746 57.2063 63.3681 57.2433 63.5665 57.2433V56.2433C63.4927 56.2433 63.4122 56.2295 63.3277 56.1995L62.9932 57.1419ZM59.714 55.277L62.9124 57.1048L63.4086 56.2366L60.2102 54.4088L59.714 55.277ZM51.837 49.9128C54.5413 50.9118 57.4779 52.2079 59.5544 55.1323L60.3698 54.5534C58.1066 51.366 54.9168 49.9845 52.1835 48.9747L51.837 49.9128ZM52.1143 48.2391L51.5745 49.1986L52.446 49.6889L52.9859 48.7294L52.1143 48.2391ZM51.5156 48.4574L52.2972 48.9156L52.8029 48.0529L52.0213 47.5947L51.5156 48.4574ZM51.2706 49.8892L52.2015 48.2759L51.3354 47.7761L50.4044 49.3894L51.2706 49.8892ZM50.0106 48.3854C49.9754 48.6032 49.9194 48.9164 49.9688 49.2127C50.0271 49.5623 50.2216 49.8636 50.5897 50.0736L51.0853 49.205C51.0188 49.1671 50.9926 49.1367 50.9818 49.1212C50.9714 49.1064 50.9615 49.0862 50.9552 49.0483C50.9382 48.9464 50.9551 48.8092 50.9978 48.545L50.0106 48.3854ZM50.0109 48.3835L50.0106 48.3853L50.9978 48.5451L50.9981 48.5433L50.0109 48.3835ZM50.0424 48.1811C50.0341 48.2437 50.0235 48.3093 50.0116 48.3797L50.9974 48.5471C51.01 48.4732 51.023 48.3936 51.0337 48.3128L50.0424 48.1811ZM50.2457 48.6759L50.3779 48.7206L50.6983 47.7733L50.5661 47.7286L50.2457 48.6759ZM48.7429 46.8196C49.48 47.2407 49.8397 47.7625 49.9107 48.2713L50.9011 48.1332C50.7749 47.2287 50.1563 46.4753 49.239 45.9513L48.7429 46.8196ZM48.4983 46.0358L48.4911 46.3747L49.4908 46.3961L49.4981 46.0572L48.4983 46.0358ZM50.4402 45.5171L48.9881 45.5466L49.0084 46.5464L50.4605 46.5169L50.4402 45.5171ZM49.9862 45.771L49.9581 45.9298L50.9427 46.1042L50.9709 45.9455L49.9862 45.771ZM48.4454 45.6102L50.2987 46.3248L50.6584 45.3917L48.8052 44.6772L48.4454 45.6102ZM48.1253 43.7977V45.1437H49.1253V43.7977H48.1253ZM48.8805 43.293C48.7916 43.2947 48.7048 43.2965 48.6179 43.2977L48.6327 44.2976C48.7225 44.2963 48.8117 44.2945 48.9003 44.2928L48.8805 43.293ZM48.8715 43.2933L48.8712 43.2933L48.9096 44.2925L48.9099 44.2925L48.8715 43.2933ZM48.891 43.2929H48.8907V44.2929H48.891V43.2929ZM48.8783 43.293L48.8778 43.2931L48.9041 44.2927L48.9046 44.2927L48.8783 43.293ZM48.882 43.293L48.8814 43.293L48.9014 44.2928L48.902 44.2928L48.882 43.293ZM48.8905 43.2928L48.8822 43.293L48.9018 44.2928L48.91 44.2926L48.8905 43.2928ZM49.4714 43.2859C49.2771 43.2859 49.082 43.2892 48.8907 43.2928L48.9097 44.2926C49.1004 44.289 49.2873 44.2859 49.4714 44.2859V43.2859ZM51.7318 43.7271C51.0178 43.3254 50.1702 43.2859 49.4714 43.2859V44.2859C50.169 44.2859 50.7767 44.3371 51.2414 44.5986L51.7318 43.7271ZM51.1791 43.7362L51.0829 43.8678L51.8902 44.458L51.9864 44.3264L51.1791 43.7362ZM50.7713 43.9893C50.9372 44.1278 51.0955 44.26 51.2409 44.3962L51.9246 43.6664C51.7546 43.5072 51.574 43.3567 51.4119 43.2215L50.7713 43.9893ZM50.7661 43.985L50.7662 43.985L51.417 43.2258L51.4169 43.2257L50.7661 43.985ZM50.7724 43.9902L50.7727 43.9905L51.4103 43.2201L51.41 43.2199L50.7724 43.9902ZM50.7709 43.989L50.7711 43.9892L51.4113 43.2209L51.4111 43.2208L50.7709 43.989ZM49.2502 41.5103C49.2892 42.7783 50.1152 43.442 50.7707 43.9888L51.4113 43.221C50.7193 42.6436 50.2733 42.2448 50.2497 41.4795L49.2502 41.5103ZM48.4855 24.0646L49.2504 41.5168L50.2495 41.473L49.4846 24.0208L48.4855 24.0646ZM50.5305 22.0264C49.7925 22.3671 48.8142 22.7891 48.5033 23.909L49.4668 24.1765C49.635 23.5707 50.1291 23.3131 50.9496 22.9344L50.5305 22.0264ZM50.5311 22.0261L50.5309 22.0262L50.9492 22.9345L50.9494 22.9344L50.5311 22.0261ZM50.5458 22.0194L50.5307 22.0263L50.9499 22.9342L50.9649 22.9273L50.5458 22.0194ZM50.5471 22.0188L50.547 22.0188L50.9637 22.9279L50.9637 22.9278L50.5471 22.0188ZM50.5472 22.0187L50.5471 22.0188L50.9637 22.9278L50.9638 22.9278L50.5472 22.0187ZM50.5472 22.0187L50.5472 22.0187L50.9638 22.9278L50.9639 22.9278L50.5472 22.0187ZM50.5473 22.0187L50.5472 22.0187L50.9639 22.9278L50.964 22.9277L50.5473 22.0187ZM50.5474 22.0186L50.5473 22.0187L50.964 22.9277L50.964 22.9277L50.5474 22.0186ZM50.5474 22.0186L50.5474 22.0186L50.964 22.9277L50.9641 22.9277L50.5474 22.0186ZM50.5475 22.0186L50.5474 22.0186L50.9641 22.9277L50.9642 22.9276L50.5475 22.0186ZM50.5476 22.0185L50.5475 22.0186L50.9642 22.9276L50.9642 22.9276L50.5476 22.0185ZM50.5476 22.0185L50.5476 22.0185L50.9642 22.9276L50.9643 22.9276L50.5476 22.0185ZM50.5477 22.0185L50.5476 22.0185L50.9643 22.9276L50.9644 22.9275L50.5477 22.0185ZM50.5478 22.0184L50.5477 22.0185L50.9644 22.9275L50.9644 22.9275L50.5478 22.0184ZM50.5478 22.0184L50.5478 22.0184L50.9644 22.9275L50.9645 22.9275L50.5478 22.0184ZM50.5479 22.0184L50.5478 22.0184L50.9645 22.9275L50.9646 22.9275L50.5479 22.0184ZM50.548 22.0184L50.5479 22.0184L50.9646 22.9275L50.9646 22.9274L50.548 22.0184ZM50.9725 21.817C50.837 21.8849 50.6961 21.95 50.5468 22.0189L50.9658 22.9269C51.1125 22.8592 51.2683 22.7873 51.4209 22.7108L50.9725 21.817ZM51.2001 21.7027L50.9724 21.817L51.421 22.7107L51.6487 22.5964L51.2001 21.7027ZM48.8602 22.2454L51.3454 22.6433L51.5035 21.6558L49.0183 21.258L48.8602 22.2454ZM47.7849 21.284C47.84 21.5299 47.9645 21.7438 48.1582 21.9113C48.3439 22.0719 48.5714 22.1712 48.8106 22.2349L49.0678 21.2685C48.9201 21.2292 48.8468 21.1847 48.8122 21.1548C48.7857 21.1319 48.7704 21.1087 48.7607 21.0653L47.7849 21.284ZM49.4049 20.6965L48.2825 20.6747L48.2631 21.6745L49.3855 21.6963L49.4049 20.6965ZM47.8213 12.2828L48.8987 21.256L49.8916 21.1368L48.8141 12.1636L47.8213 12.2828ZM48.5771 11.7232H48.3177V12.7232H48.5771V11.7232ZM48.0771 9.52344V12.2232H49.0771V9.52344H48.0771ZM47.5913 10.0234H48.5771V9.02344H47.5913V10.0234ZM48.0913 12.2232V9.52344H47.0913V12.2232H48.0913ZM48.5763 87.1554H47.5904V88.1554H48.5763V87.1554ZM48.0763 84.7497V87.6554H49.0763V84.7497H48.0763ZM47.5904 85.2497H48.5763V84.2497H47.5904V85.2497ZM48.0904 87.6554V84.7497H47.0904V87.6554H48.0904ZM11.8384 48.4812H8.875V49.4812H11.8384V48.4812ZM11.3384 47.9954V48.9812H12.3384V47.9954H11.3384ZM8.875 48.4954H11.8384V47.4954H8.875V48.4954ZM9.375 48.9812V47.9954H8.375V48.9812H9.375ZM87.2985 48.482H84.3796V49.482H87.2985V48.482ZM86.7985 47.9962V48.982H87.7985V47.9962H86.7985ZM84.3796 48.4962H87.2985V47.4962H84.3796V48.4962ZM84.8796 48.982V47.9962H83.8796V48.982H84.8796ZM57.1052 13.8672L57.5816 13.9947L57.8401 13.0286L57.3637 12.9012L57.1052 13.8672ZM57.4493 10.6511L56.7515 13.2547L57.7174 13.5136L58.4152 10.91L57.4493 10.6511ZM58.5383 10.4256L58.0619 10.2977L57.8025 11.2635L58.2789 11.3914L58.5383 10.4256ZM58.1938 13.6411L58.8915 11.038L57.9256 10.7791L57.2279 13.3822L58.1938 13.6411ZM37.5818 86.7346L38.0577 86.8621L38.3164 85.8961L37.8405 85.7686L37.5818 86.7346ZM37.979 83.3195L37.2282 86.1222L38.1941 86.381L38.945 83.5782L37.979 83.3195ZM39.0676 83.0933L38.5912 82.9658L38.3327 83.9319L38.8091 84.0593L39.0676 83.0933ZM38.67 86.5085L39.4213 83.7058L38.4554 83.4469L37.7041 86.2496L38.67 86.5085ZM13.2057 38.8745L10.276 38.0897L10.0172 39.0556L12.947 39.8405L13.2057 38.8745ZM12.7214 38.7514L12.5935 39.2278L13.5592 39.4872L13.6872 39.0108L12.7214 38.7514ZM10.1447 38.5793L13.0749 39.3641L13.3337 38.3981L10.4034 37.6133L10.1447 38.5793ZM10.6296 38.7019L10.7571 38.2255L9.79105 37.967L9.66357 38.4434L10.6296 38.7019ZM86.0246 58.3865L83.205 57.6312L82.9463 58.5971L85.7658 59.3525L86.0246 58.3865ZM85.5397 58.2639L85.4122 58.7402L86.3782 58.9988L86.5057 58.5224L85.5397 58.2639ZM83.0742 58.1208L85.8933 58.8761L86.1521 57.9102L83.333 57.1548L83.0742 58.1208ZM83.5585 58.2438L83.6865 57.7675L82.7207 57.5081L82.5928 57.9845L83.5585 58.2438ZM65.5467 17.2486L66.4005 17.7417L66.9006 16.8758L66.0468 16.3826L65.5467 17.2486ZM66.7089 14.2356L65.3637 16.5656L66.2298 17.0656L67.5749 14.7356L66.7089 14.2356ZM68.2458 14.5457L67.392 14.0526L66.8918 14.9186L67.7456 15.4117L68.2458 14.5457ZM67.0836 17.5587L68.4287 15.2287L67.5627 14.7287L66.2175 17.0588L67.0836 17.5587ZM27.8244 82.5841L28.6782 83.0773L29.1783 82.2113L28.3245 81.7182L27.8244 82.5841ZM29.0913 79.3897L27.6414 81.9012L28.5075 82.4012L29.9574 79.8896L29.0913 79.3897ZM30.6281 79.6993L29.7743 79.2066L29.2745 80.0727L30.1283 80.5654L30.6281 79.6993ZM29.3613 82.8942L30.8112 80.3823L29.9451 79.8824L28.4952 82.3943L29.3613 82.8942ZM16.6917 30.345L14.1308 28.8665L13.6308 29.7325L16.1917 31.211L16.6917 30.345ZM16.5019 29.6741L16.0088 30.5279L16.8747 31.0281L17.3678 30.1743L16.5019 29.6741ZM14.1239 28.8787L16.6849 30.3572L17.1848 29.4912L14.6239 28.0127L14.1239 28.8787ZM14.3137 29.5496L14.8069 28.6957L13.9409 28.1956L13.4478 29.0494L14.3137 29.5496ZM82.0455 68.0764L79.5191 66.6179L79.0191 67.4839L81.5456 68.9424L82.0455 68.0764ZM81.8557 67.4055L81.3626 68.2593L82.2285 68.7595L82.7217 67.9057L81.8557 67.4055ZM79.5122 66.6301L82.0387 68.0886L82.5387 67.2226L80.0122 65.7641L79.5122 66.6301ZM79.702 67.301L80.1952 66.4472L79.3292 65.947L78.8361 66.8008L79.702 67.301ZM73.2071 23.0035L73.5559 23.3524L74.263 22.6453L73.9142 22.2964L73.2071 23.0035ZM75.1111 20.3928L73.2071 22.2963L73.9141 23.0035L75.8182 21.0999L75.1111 20.3928ZM76.1671 20.7417L75.8182 20.3928L75.1111 21.0999L75.46 21.4488L76.1671 20.7417ZM74.263 23.3524L76.167 21.4488L75.46 20.7416L73.556 22.6452L74.263 23.3524ZM19.8622 76.3482L20.2111 76.6971L20.9182 75.99L20.5693 75.6411L19.8622 76.3482ZM21.9119 73.5919L19.8622 75.6411L20.5693 76.3483L22.6189 74.299L21.9119 73.5919ZM22.9674 73.9403L22.619 73.5919L21.9119 74.299L22.2603 74.6474L22.9674 73.9403ZM20.9182 76.6971L22.9674 74.6474L22.2602 73.9404L20.211 75.99L20.9182 76.6971ZM22.6409 22.6659L20.5422 20.5673L19.8351 21.2744L21.9338 23.373L22.6409 22.6659ZM22.2826 22.3171L21.9338 22.6659L22.6409 23.373L22.9897 23.0242L22.2826 22.3171ZM20.1835 20.9255L22.2827 23.0242L22.9897 22.317L20.8906 20.2183L20.1835 20.9255ZM20.5424 21.2741L20.8908 20.9253L20.1833 20.2186L19.8349 20.5675L20.5424 21.2741ZM75.9936 76.0185L73.9276 73.953L73.2206 74.6601L75.2866 76.7257L75.9936 76.0185ZM75.6349 75.6701L75.2865 76.0186L75.9936 76.7257L76.342 76.3772L75.6349 75.6701ZM73.5693 74.3112L75.6349 76.3772L76.3421 75.6702L74.2765 73.6042L73.5693 74.3112ZM73.9276 74.6601L74.2765 74.3112L73.5694 73.6041L73.2205 73.953L73.9276 74.6601ZM78.8292 30.1515L79.3224 31.0053L80.1883 30.5052L79.6952 29.6514L78.8292 30.1515ZM81.3404 28.1242L79.0122 29.4684L79.5122 30.3344L81.8404 28.9902L81.3404 28.1242ZM82.5165 29.1609L82.0234 28.3071L81.1575 28.8073L81.6506 29.6611L82.5165 29.1609ZM80.0053 31.1882L82.3336 29.844L81.8336 28.978L79.5053 30.3222L80.0053 31.1882ZM13.4934 67.8742L13.9865 68.7275L14.8523 68.2272L14.3592 67.3738L13.4934 67.8742ZM16.1828 65.7438L13.6763 67.191L14.1763 68.057L16.6828 66.6098L16.1828 65.7438ZM17.3589 66.7805L16.8658 65.9267L15.9998 66.4269L16.493 67.2807L17.3589 66.7805ZM14.6694 68.9104L17.1759 67.4636L16.676 66.5976L14.1695 68.0443L14.6694 68.9104ZM29.9766 17.0791L28.4926 14.5086L27.6266 15.0086L29.1105 17.5791L29.9766 17.0791ZM30.1473 16.403L29.2935 16.8961L29.7936 17.762L30.6474 17.2689L30.1473 16.403ZM28.48 14.5155L29.9644 17.086L30.8303 16.5859L29.3459 14.0154L28.48 14.5155ZM28.3098 15.1915L29.1631 14.6984L28.6628 13.8325L27.8094 14.3257L28.3098 15.1915ZM67.7014 82.4226L66.2415 79.8939L65.3755 80.3939L66.8354 82.9226L67.7014 82.4226ZM67.8721 81.7465L67.0183 82.2397L67.5185 83.1056L68.3723 82.6125L67.8721 81.7465ZM66.2293 79.9007L67.6892 82.4295L68.5552 81.9295L67.0953 79.4008L66.2293 79.9007ZM66.0585 80.5769L66.9123 80.0837L66.4122 79.2178L65.5584 79.7109L66.0585 80.5769ZM82.5891 38.9668L82.7165 39.4432L83.6825 39.1846L83.5551 38.7083L82.5891 38.9668ZM85.5422 37.6582L82.9427 38.3546L83.2014 39.3205L85.801 38.6241L85.5422 37.6582ZM86.2821 38.4883L86.1546 38.0119L85.1886 38.2704L85.3161 38.7468L86.2821 38.4883ZM83.3289 39.7969L85.9284 39.1005L85.6697 38.1346L83.0702 38.8309L83.3289 39.7969ZM9.71822 58.4932L9.84615 58.9695L10.8119 58.7102L10.684 58.2338L9.71822 58.4932ZM12.8731 57.1302L10.0717 57.8805L10.3305 58.8465L13.1319 58.0961L12.8731 57.1302ZM13.613 57.9602L13.4855 57.4839L12.5195 57.7424L12.647 58.2187L13.613 57.9602ZM10.4584 59.3228L13.2594 58.5724L13.0006 57.6065L10.1997 58.3569L10.4584 59.3228ZM38.9608 13.3896L38.1932 10.5256L37.2273 10.7845L37.9949 13.6485L38.9608 13.3896ZM38.8249 12.9085L38.3486 13.036L38.6071 14.002L39.0834 13.8746L38.8249 12.9085ZM37.7036 10.6565L38.4712 13.521L39.4371 13.2621L38.6695 10.3977L37.7036 10.6565ZM37.8399 11.1379L38.3162 11.01L38.0569 10.0442L37.5805 10.1721L37.8399 11.1379ZM58.4904 86.2723L57.7341 83.45L56.7682 83.7088L57.5244 86.5311L58.4904 86.2723ZM58.3545 85.7912L57.8781 85.9187L58.1367 86.8847L58.613 86.7572L58.3545 85.7912ZM57.2445 83.5809L58.0008 86.4036L58.9667 86.1448L58.2105 83.3221L57.2445 83.5809ZM57.3808 84.0623L57.8572 83.9344L57.5978 82.9686L57.1214 83.0965L57.3808 84.0623Z" fill="#003594"/></g><path id="Fill 67" fill-rule="evenodd" clip-rule="evenodd" d="M5.51953 48.4671C5.51953 71.8482 24.5821 90.8702 48.0126 90.8702C71.4437 90.8702 90.5062 71.8482 90.5062 48.4671C90.5062 25.0864 71.4437 6.06445 48.0126 6.06445C24.5821 6.06445 5.51953 25.0864 5.51953 48.4671Z" stroke="#003594" stroke-width="0.5"/><path id="Fill 70" fill-rule="evenodd" clip-rule="evenodd" d="M49.6069 48.4656C49.6069 49.3443 48.8951 50.0566 48.0163 50.0566C47.138 50.0566 46.4258 49.3443 46.4258 48.4656C46.4258 47.5873 47.138 46.875 48.0163 46.875C48.8951 46.875 49.6069 47.5873 49.6069 48.4656" fill="#003594"/><path id="Fill 71" fill-rule="evenodd" clip-rule="evenodd" d="M48.0149 47.1765C47.304 47.1765 46.7256 47.7549 46.7256 48.4658C46.7256 49.1767 47.304 49.7556 48.0149 49.7556C48.7258 49.7556 49.3042 49.1767 49.3042 48.4658C49.3042 47.7549 48.7258 47.1765 48.0149 47.1765ZM48.0168 50.3583C46.9734 50.3583 46.125 49.5095 46.125 48.466C46.125 47.4226 46.9734 46.5742 48.0168 46.5742C49.0598 46.5742 49.9086 47.4226 49.9086 48.466C49.9086 49.5095 49.0598 50.3583 48.0168 50.3583Z" fill="#003594"/><path id="Fill 74" fill-rule="evenodd" clip-rule="evenodd" d="M47.2117 49.8586C46.4491 49.4231 46.1841 48.4509 46.6201 47.6887C47.0561 46.9256 48.0274 46.6607 48.79 47.0967C49.5531 47.5326 49.818 48.5044 49.382 49.267C48.9461 50.0296 47.9743 50.2946 47.2117 49.8586" fill="#003594"/><path id="Fill 75" fill-rule="evenodd" clip-rule="evenodd" d="M48.0043 47.1856C47.542 47.1856 47.1124 47.4347 46.8833 47.8357C46.7122 48.1347 46.6682 48.4822 46.759 48.8148C46.8497 49.1468 47.0638 49.424 47.3628 49.5946C47.5579 49.7062 47.7783 49.7652 48.0015 49.7652C48.4638 49.7652 48.893 49.5161 49.1221 49.1151C49.4751 48.4981 49.2596 47.7087 48.6426 47.3558C48.448 47.2446 48.227 47.1856 48.0043 47.1856ZM48.001 50.3685C47.673 50.3685 47.3491 50.2818 47.0633 50.1185C46.6246 49.8681 46.3097 49.4616 46.1768 48.9739C46.0439 48.4862 46.1088 47.9763 46.3597 47.5376C46.6958 46.9496 47.3255 46.584 48.0037 46.584C48.3313 46.584 48.6552 46.6702 48.941 46.8335C49.8465 47.3511 50.1623 48.5094 49.6447 49.4153C49.3085 50.0028 48.6788 50.3685 48.001 50.3685Z" fill="#003594"/><path id="Fill 76" fill-rule="evenodd" clip-rule="evenodd" d="M49.603 48.4675C49.603 49.3463 48.8907 50.0585 48.0124 50.0585C47.1341 50.0585 46.4219 49.3463 46.4219 48.4675C46.4219 47.5888 47.1341 46.877 48.0124 46.877C48.8907 46.877 49.603 47.5888 49.603 48.4675" fill="#003594"/><path id="Fill 77" fill-rule="evenodd" clip-rule="evenodd" d="M48.0121 47.1793C47.3012 47.1793 46.7228 47.7577 46.7228 48.4686C46.7228 49.1795 47.3012 49.7584 48.0121 49.7584C48.723 49.7584 49.3015 49.1795 49.3015 48.4686C49.3015 47.7577 48.723 47.1793 48.0121 47.1793ZM48.0129 50.3602C46.9695 50.3602 46.1211 49.5114 46.1211 48.468C46.1211 47.4245 46.9695 46.5762 48.0129 46.5762C49.0559 46.5762 49.9047 47.4245 49.9047 48.468C49.9047 49.5114 49.0559 50.3602 48.0129 50.3602Z" fill="#003594"/></g></svg>